<svg width="32" height="32" viewBox="0 0 32 32" fill="none" xmlns="http://www.w3.org/2000/svg">
  <rect width="32" height="32" fill="#f5f5f5"/>
  <g transform="translate(2, 8)">
    <!-- L -->
    <path d="M0 0 L0 12 L8 12 L8 9 L3 9 L3 0 Z" fill="#1a1a1a"/>
    
    <!-- S -->
    <path d="M12 0 L20 0 L20 3 L15 3 L15 4.5 L19 4.5 C20.5 4.5 21.5 5.5 21.5 7 C21.5 8.5 20.5 9.5 19 9.5 L15 9.5 L15 12 L12 12 L12 9 L16 9 L16 7.5 L12 7.5 C10.5 7.5 9.5 6.5 9.5 5 C9.5 3.5 10.5 2.5 12 2.5 L16 2.5 L16 0 L12 0 Z" fill="#1a1a1a"/>
    
    <!-- Dot -->
    <circle cx="25" cy="10" r="1.5" fill="#1a1a1a"/>
  </g>
</svg>