<?xml version="1.0" encoding="UTF-8"?>
<svg version="1.1" xmlns="http://www.w3.org/2000/svg" width="400" height="400">
<path d="M0 0 C9.21807484 7.30422692 12.74908348 16.72711727 15 28 C15 28.33 15 28.66 15 29 C9.06 29 3.12 29 -3 29 C-4.2375 26.215625 -4.2375 26.215625 -5.5 23.375 C-8.44088017 17.52767619 -11.22336489 14.06581193 -17 11 C-17.93005859 10.49533203 -17.93005859 10.49533203 -18.87890625 9.98046875 C-27.96871194 6.08483774 -40.93754839 6.56727049 -50.1875 9.625 C-56.02614011 12.17211796 -60.17059173 15.52144686 -63.9375 20.625 C-65.76829139 26.44045502 -66.15863039 32.48899881 -64.2265625 38.34375 C-59.99648187 46.14389868 -51.85532307 49.59521226 -43.72744751 52.0758667 C-39.74488359 53.23359306 -35.75137062 54.34668708 -31.75 55.4375 C2.49679008 64.78034297 2.49679008 64.78034297 12.46484375 80.27734375 C17.33782864 89.58977394 17.51647677 101.37188689 15.19921875 111.5 C10.96235944 122.68181425 2.77173164 130.98367534 -8 136 C-24.96437011 142.8252511 -45.09923598 143.41735951 -62.25 136.75 C-73.61480303 131.67589734 -81.09451272 124.29130389 -86.03125 112.8671875 C-87.49133158 108.54581701 -87.80229218 104.54727989 -88 100 C-81.73 100 -75.46 100 -69 100 C-68.2265625 102.784375 -68.2265625 102.784375 -67.4375 105.625 C-65.06862637 112.66535868 -62.18352068 115.78266228 -55.72265625 119.20703125 C-44.66471595 124.41401478 -31.05887726 124.70333724 -19.41015625 121.06640625 C-16.04926803 119.57933577 -13.34351793 117.58666501 -10.55859375 115.20703125 C-9 114 -9 114 -7 114 C-6.32438252 112.3369416 -5.66066719 110.66905395 -5 109 C-4.72414063 108.40703125 -4.44828125 107.8140625 -4.1640625 107.203125 C-1.85860425 101.91537673 -1.55491273 97.60907949 -3 92 C-4.4421908 89.14751227 -4.4421908 89.14751227 -6 87 C-6 86.34 -6 85.68 -6 85 C-6.57137695 84.71842041 -7.14275391 84.43684082 -7.73144531 84.14672852 C-9.18207631 83.41345109 -10.62070121 82.65558652 -12.04199219 81.86694336 C-19.42772609 77.88859492 -27.19920302 75.73331557 -35.25 73.5625 C-53.02571678 68.76570567 -71.15665109 63.50413567 -81.32421875 46.828125 C-85.39075393 38.32407249 -85.51493182 27.07304572 -82.875 18.0625 C-80.98048016 13.3669915 -78.27642462 8.86052261 -75 5 C-74.34 5 -73.68 5 -73 5 C-73 4.34 -73 3.68 -73 3 C-52.68578919 -13.6763252 -21.74524511 -15.15246561 0 0 Z " fill="#000000" transform="translate(265,134)"/>
<path d="M0 0 C5.94 0 11.88 0 18 0 C18 42.9 18 85.8 18 130 C40.11 130 62.22 130 85 130 C85 135.28 85 140.56 85 146 C56.95 146 28.9 146 0 146 C0 97.82 0 49.64 0 0 Z " fill="#000000" transform="translate(86,126)"/>
<path d="M0 0 C3.61776165 1.89894958 5.62663228 3.4477654 7.0703125 7.23828125 C7.76664638 12.14500601 7.56604007 16.14768059 5.5078125 20.67578125 C2.45544364 23.88468185 0.3683864 25.1109176 -3.9296875 26.23828125 C-7.96016163 26.13458123 -11.45921776 25.49619493 -14.578125 22.828125 C-17.29108759 19.63686553 -18.83547956 17.19920223 -19.2421875 13.05078125 C-18.8721156 8.5359041 -17.82443509 5.70660112 -14.9296875 2.23828125 C-10.2485916 -0.98647371 -5.45287162 -2.15244933 0 0 Z " fill="#000000" transform="translate(306.9296875,248.76171875)"/>
</svg>
